<svg viewBox="0 0 48 48" xmlns="http://www.w3.org/2000/svg"><rect x="1.201" y="1.201" width="45.597" height="45.597" rx="10" ry="10" style="fill:#dbcdf0;stroke:#000;paint-order:fill;stroke-width:2px"/><path opacity=".5" d="M18.99 11.589c1.601 0 1.909-.326 5.001-.326 3.092 0 3.399.326 4.998.326 1.336 0 5.335-3.261 7.334-3.261 2.001 0 4.334 1.173 4.334 4.566v3.917c-.004 1.027-.379 4.179-1.842 3.337 2.322 2.744 1.842 6.1 1.842 9.065 0 8.156-11.002 10.442-16.666 10.442-5.666 0-16.666-2.286-16.666-10.442 0-2.965-.483-6.321 1.84-9.065-1.463.842-1.837-2.31-1.84-3.337v-3.917c0-3.393 2.332-4.566 4.332-4.566 1.999 0 6.001 3.261 7.333 3.261Z" style="fill:#2b1979"/><path d="M17.758 23.076c-1.021 0-1.699.664-2.043 1.22-.361.58-.534 1.285-.534 1.977 0 .696.173 1.399.534 1.981.344.554 1.022 1.219 2.043 1.219 1.021 0 1.702-.665 2.046-1.219.36-.582.531-1.285.531-1.981 0-.692-.171-1.397-.531-1.977-.344-.556-1.025-1.22-2.046-1.22Zm10.485 1.22c.345-.556 1.028-1.22 2.045-1.22 1.023 0 1.703.664 2.048 1.22.358.58.531 1.285.531 1.977 0 .696-.173 1.399-.531 1.981-.345.554-1.025 1.219-2.048 1.219-1.017 0-1.7-.665-2.045-1.219-.36-.582-.531-1.285-.531-1.981 0-.692.171-1.397.531-1.977Z" fill="#1C274C"/><path fill-rule="evenodd" clip-rule="evenodd" d="M22.273 29.377c.528-.202 1.149-.297 1.758-.297.61 0 1.23.095 1.756.297.26.1.576.259.853.515.281.255.642.729.642 1.408 0 .678-.361 1.152-.642 1.407a2.68 2.68 0 0 1-.853.515c-.526.205-1.146.297-1.756.297-.609 0-1.23-.092-1.758-.297a2.77 2.77 0 0 1-.853-.515c-.278-.255-.64-.729-.64-1.407 0-.679.362-1.153.64-1.408a2.75 2.75 0 0 1 .853-.515Z" fill="#1C274C"/><path d="M36.238 27.907c0-.867.699-1.568 1.565-1.568.616 0 1.357.14 2.047.309.721.179 1.503.42 2.249.672 1.429.489 2.943 1.111 3.628 1.554a1.567 1.567 0 1 1-1.7 2.631c-.325-.208-1.508-.728-2.942-1.22a23.989 23.989 0 0 0-1.983-.593c-.636-.156-1.075-.219-1.299-.219a1.565 1.565 0 0 1-1.565-1.566Zm.217 3.654a1.567 1.567 0 0 0 0 3.134c.431 0 1.148.239 2.046.714.714.377 1.37.806 1.882 1.138.096.065.188.125.274.18a1.567 1.567 0 0 0 1.699-2.633c-.069-.044-.147-.096-.235-.151a27.098 27.098 0 0 0-2.157-1.305c-.951-.504-2.256-1.077-3.509-1.077ZM6.896 30.285c-1.434.492-2.615 1.012-2.941 1.22a1.566 1.566 0 1 1-1.699-2.631c.684-.443 2.199-1.065 3.627-1.554a29.524 29.524 0 0 1 2.249-.672c.69-.169 1.43-.309 2.047-.309.868 0 1.567.701 1.567 1.568 0 .864-.699 1.566-1.567 1.566-.223 0-.662.063-1.298.219-.607.148-1.298.359-1.985.593Zm.429 6.442c.087-.055.177-.115.275-.18.512-.332 1.168-.761 1.882-1.138.897-.475 1.617-.714 2.046-.714a1.568 1.568 0 0 0 0-3.134c-1.251 0-2.557.573-3.51 1.077a27.75 27.75 0 0 0-2.159 1.305 11.76 11.76 0 0 1-.234.151 1.568 1.568 0 0 0 1.7 2.633Z" fill="#1C274C"/></svg>