<?xml version="1.0" encoding="UTF-8"?>
<!DOCTYPE svg PUBLIC "-//W3C//DTD SVG 1.1//EN" "http://www.w3.org/Graphics/SVG/1.1/DTD/svg11.dtd">
<svg xmlns="http://www.w3.org/2000/svg" version="1.1" width="1001px" height="1001px" style="shape-rendering:geometricPrecision; text-rendering:geometricPrecision; image-rendering:optimizeQuality; fill-rule:evenodd; clip-rule:evenodd" xmlns:xlink="http://www.w3.org/1999/xlink">
<g><path style="opacity:0.946" fill="#030303" d="M 516.5,301.5 C 513.411,303.194 510.911,302.528 509,299.5C 506.54,287.454 502.874,275.788 498,264.5C 497.196,263.196 496.029,262.529 494.5,262.5C 485.229,269.346 478.062,278.012 473,288.5C 471.687,289.573 470.187,290.24 468.5,290.5C 456.959,288.172 445.293,287.006 433.5,287C 430.833,284 430.833,281 433.5,278C 436.882,277.824 440.215,277.324 443.5,276.5C 441.884,271.267 439.717,266.267 437,261.5C 435.611,259.773 433.944,258.439 432,257.5C 428.439,259.055 425.439,261.388 423,264.5C 417.379,271.577 411.879,278.743 406.5,286C 404.115,286.556 401.782,286.39 399.5,285.5C 399.338,283.473 399.505,281.473 400,279.5C 404.755,272.324 409.755,265.324 415,258.5C 419.523,252.66 425.357,248.993 432.5,247.5C 438.538,248.698 443.038,252.031 446,257.5C 449.22,263.941 451.887,270.608 454,277.5C 457.072,278.43 460.239,279.097 463.5,279.5C 465.374,279.61 466.874,278.944 468,277.5C 472.516,269.325 478.349,262.158 485.5,256C 495.4,249.867 502.9,252.034 508,262.5C 512.584,273.834 516.084,285.501 518.5,297.5C 518.332,299.171 517.665,300.504 516.5,301.5 Z"/></g>
<g><path style="opacity:0.999" fill="#9e9e9e" d="M 516.5,301.5 C 516.971,303.579 517.637,305.579 518.5,307.5C 514.901,306.938 512.901,308.438 512.5,312C 515.999,318.505 518.832,325.338 521,332.5C 522.328,337.442 522.661,342.442 522,347.5C 515.233,348.786 508.399,349.952 501.5,351C 497.273,354.925 497.773,358.091 503,360.5C 509.087,358.988 515.254,357.988 521.5,357.5C 520.666,363.673 518.666,369.339 515.5,374.5C 498.994,365.067 483.66,353.9 469.5,341C 466.964,340.814 464.631,340.314 462.5,339.5C 470.275,340.558 473.442,337.225 472,329.5C 467.455,324.234 462.955,324.234 458.5,329.5C 453.378,324.612 449.211,318.946 446,312.5C 441.195,318.151 435.695,322.818 429.5,326.5C 426.594,321.618 422.594,320.451 417.5,323C 415.496,325.841 414.996,329.007 416,332.5C 416.698,333.691 417.531,334.691 418.5,335.5C 410.663,339.584 402.997,343.917 395.5,348.5C 390.053,345.013 384.053,342.679 377.5,341.5C 378.636,325.231 385.136,311.564 397,300.5C 398.163,297.029 397.33,294.362 394.5,292.5C 396.547,290.45 398.214,288.117 399.5,285.5C 401.782,286.39 404.115,286.556 406.5,286C 411.879,278.743 417.379,271.577 423,264.5C 425.439,261.388 428.439,259.055 432,257.5C 433.944,258.439 435.611,259.773 437,261.5C 439.717,266.267 441.884,271.267 443.5,276.5C 440.215,277.324 436.882,277.824 433.5,278C 430.833,281 430.833,284 433.5,287C 445.293,287.006 456.959,288.172 468.5,290.5C 470.187,290.24 471.687,289.573 473,288.5C 478.062,278.012 485.229,269.346 494.5,262.5C 496.029,262.529 497.196,263.196 498,264.5C 502.874,275.788 506.54,287.454 509,299.5C 510.911,302.528 513.411,303.194 516.5,301.5 Z"/></g>
<g><path style="opacity:0.97" fill="#050300" d="M 394.5,292.5 C 397.33,294.362 398.163,297.029 397,300.5C 385.136,311.564 378.636,325.231 377.5,341.5C 384.053,342.679 390.053,345.013 395.5,348.5C 395.056,354.153 392.056,355.986 386.5,354C 383.65,352.829 380.816,351.662 378,350.5C 377.41,356.228 378.577,361.561 381.5,366.5C 384.432,365.301 387.432,364.301 390.5,363.5C 395.584,365.026 396.584,367.859 393.5,372C 390.534,373.266 387.534,374.433 384.5,375.5C 389.858,384.358 397.024,391.358 406,396.5C 406.987,400.348 405.487,402.348 401.5,402.5C 390.213,397.72 381.546,389.887 375.5,379C 370.501,379.826 365.501,380.992 360.5,382.5C 354.751,381.002 354.084,378.169 358.5,374C 362.748,372.695 366.915,371.195 371,369.5C 371.18,367.512 371.014,365.512 370.5,363.5C 302.933,380.118 235.6,397.618 168.5,416C 238.191,442.679 308.191,468.512 378.5,493.5C 380.263,466.185 385.43,439.519 394,413.5C 394.875,410.785 396.708,409.452 399.5,409.5C 402.488,409.155 403.821,410.488 403.5,413.5C 394.772,439.306 389.439,465.806 387.5,493C 387.544,494.764 387.878,496.431 388.5,498C 411.603,506.701 434.77,515.201 458,523.5C 472.818,518.727 487.651,514.06 502.5,509.5C 525.25,502.311 547.917,494.811 570.5,487C 553.362,458.602 531.695,434.102 505.5,413.5C 502.382,411.152 501.715,408.152 503.5,404.5C 505.527,404.338 507.527,404.505 509.5,405C 531.079,422.077 550.079,441.577 566.5,463.5C 566.783,464.289 567.283,464.956 568,465.5C 568.5,425.168 568.667,384.835 568.5,344.5C 569.462,340.854 571.795,339.687 575.5,341C 576,341.5 576.5,342 577,342.5C 577.181,389.862 577.681,437.195 578.5,484.5C 626.914,469.028 675.248,453.362 723.5,437.5C 704.621,430.707 685.621,424.207 666.5,418C 659.302,415.381 652.302,412.381 645.5,409C 639.051,402.364 637.885,394.864 642,386.5C 645.742,381.709 650.576,379.876 656.5,381C 690.716,392.776 724.716,405.11 758.5,418C 761.337,419.672 763.67,421.839 765.5,424.5C 788.078,416.696 810.745,409.196 833.5,402C 747.797,374.157 662.13,346.157 576.5,318C 572.449,317.482 568.449,317.816 564.5,319C 552.856,321.994 541.189,324.828 529.5,327.5C 530.557,333.453 531.224,339.453 531.5,345.5C 535.163,344.888 538.83,344.721 542.5,345C 545.917,347.321 546.25,349.988 543.5,353C 539.38,353.85 535.38,355.017 531.5,356.5C 529.89,365.329 526.89,373.662 522.5,381.5C 527.856,384.178 533.189,386.844 538.5,389.5C 540.706,395.456 538.706,397.956 532.5,397C 527.455,394.314 522.288,391.814 517,389.5C 512.28,393.728 507.446,397.728 502.5,401.5C 496.577,403.742 494.077,401.742 495,395.5C 499.444,392.357 503.611,388.857 507.5,385C 503.921,383.294 500.421,381.461 497,379.5C 495.579,375.518 496.746,372.852 500.5,371.5C 504.948,373.224 509.281,375.224 513.5,377.5C 514.425,376.643 515.092,375.643 515.5,374.5C 518.666,369.339 520.666,363.673 521.5,357.5C 515.254,357.988 509.087,358.988 503,360.5C 497.773,358.091 497.273,354.925 501.5,351C 508.399,349.952 515.233,348.786 522,347.5C 522.661,342.442 522.328,337.442 521,332.5C 518.832,325.338 515.999,318.505 512.5,312C 512.901,308.438 514.901,306.938 518.5,307.5C 522.161,309.76 524.661,313.093 526,317.5C 526.561,318.022 527.228,318.355 528,318.5C 541.521,315.078 555.021,311.578 568.5,308C 572.572,307.342 576.572,307.675 580.5,309C 670.771,338.535 761.105,367.868 851.5,397C 852.333,397.833 853.167,398.667 854,399.5C 854.667,479.167 854.667,558.833 854,638.5C 853.692,639.308 853.192,639.975 852.5,640.5C 722.538,687.765 592.538,734.932 462.5,782C 458.739,782.738 455.072,782.405 451.5,781C 350.12,739.211 248.954,697.044 148,654.5C 147.333,573.833 147.333,493.167 148,412.5C 148.903,411.299 150.069,410.465 151.5,410C 223.124,391.177 294.79,372.511 366.5,354C 367.769,351.861 367.769,349.695 366.5,347.5C 363.5,346.333 360.5,345.167 357.5,344C 354.701,340.661 355.034,337.661 358.5,335C 361.878,334.952 365.211,335.452 368.5,336.5C 370.313,319.708 377.313,305.541 389.5,294C 391.025,292.991 392.692,292.491 394.5,292.5 Z M 651.5,390.5 C 653.199,390.34 654.866,390.506 656.5,391C 689.32,402.607 721.987,414.607 754.5,427C 749.381,429.039 744.215,430.872 739,432.5C 712.591,423.141 686.091,413.975 659.5,405C 653.785,404.114 650.119,400.947 648.5,395.5C 649.26,393.64 650.26,391.973 651.5,390.5 Z"/></g>
<g><path style="opacity:1" fill="#fdfdfd" d="M 458.5,329.5 C 458.337,331.857 458.503,334.19 459,336.5C 459.72,338.056 460.887,339.056 462.5,339.5C 464.631,340.314 466.964,340.814 469.5,341C 483.66,353.9 498.994,365.067 515.5,374.5C 515.092,375.643 514.425,376.643 513.5,377.5C 509.281,375.224 504.948,373.224 500.5,371.5C 496.746,372.852 495.579,375.518 497,379.5C 500.421,381.461 503.921,383.294 507.5,385C 503.611,388.857 499.444,392.357 495,395.5C 494.077,401.742 496.577,403.742 502.5,401.5C 502.557,402.609 502.89,403.609 503.5,404.5C 501.715,408.152 502.382,411.152 505.5,413.5C 507.442,432.416 505.942,451.083 501,469.5C 500.058,482.907 500.558,496.24 502.5,509.5C 487.651,514.06 472.818,518.727 458,523.5C 434.77,515.201 411.603,506.701 388.5,498C 387.878,496.431 387.544,494.764 387.5,493C 389.439,465.806 394.772,439.306 403.5,413.5C 403.821,410.488 402.488,409.155 399.5,409.5C 399.878,407.079 400.545,404.746 401.5,402.5C 405.487,402.348 406.987,400.348 406,396.5C 397.024,391.358 389.858,384.358 384.5,375.5C 387.534,374.433 390.534,373.266 393.5,372C 396.584,367.859 395.584,365.026 390.5,363.5C 387.432,364.301 384.432,365.301 381.5,366.5C 378.577,361.561 377.41,356.228 378,350.5C 380.816,351.662 383.65,352.829 386.5,354C 392.056,355.986 395.056,354.153 395.5,348.5C 402.997,343.917 410.663,339.584 418.5,335.5C 425.969,337.376 429.635,334.376 429.5,326.5C 435.695,322.818 441.195,318.151 446,312.5C 449.211,318.946 453.378,324.612 458.5,329.5 Z"/></g>
<g><path style="opacity:1" fill="#fda000" d="M 568.5,344.5 C 567.833,384.167 567.167,423.833 566.5,463.5C 550.079,441.577 531.079,422.077 509.5,405C 507.527,404.505 505.527,404.338 503.5,404.5C 502.89,403.609 502.557,402.609 502.5,401.5C 507.446,397.728 512.28,393.728 517,389.5C 522.288,391.814 527.455,394.314 532.5,397C 538.706,397.956 540.706,395.456 538.5,389.5C 533.189,386.844 527.856,384.178 522.5,381.5C 526.89,373.662 529.89,365.329 531.5,356.5C 535.38,355.017 539.38,353.85 543.5,353C 546.25,349.988 545.917,347.321 542.5,345C 538.83,344.721 535.163,344.888 531.5,345.5C 531.224,339.453 530.557,333.453 529.5,327.5C 541.189,324.828 552.856,321.994 564.5,319C 568.449,317.816 572.449,317.482 576.5,318C 662.13,346.157 747.797,374.157 833.5,402C 810.745,409.196 788.078,416.696 765.5,424.5C 763.67,421.839 761.337,419.672 758.5,418C 724.716,405.11 690.716,392.776 656.5,381C 650.576,379.876 645.742,381.709 642,386.5C 637.885,394.864 639.051,402.364 645.5,409C 652.302,412.381 659.302,415.381 666.5,418C 685.621,424.207 704.621,430.707 723.5,437.5C 675.248,453.362 626.914,469.028 578.5,484.5C 577.681,437.195 577.181,389.862 577,342.5C 576.5,342 576,341.5 575.5,341C 571.795,339.687 569.462,340.854 568.5,344.5 Z"/></g>
<g><path style="opacity:1" fill="#0a0a0a" d="M 429.5,326.5 C 429.635,334.376 425.969,337.376 418.5,335.5C 417.531,334.691 416.698,333.691 416,332.5C 414.996,329.007 415.496,325.841 417.5,323C 422.594,320.451 426.594,321.618 429.5,326.5 Z"/></g>
<g><path style="opacity:1" fill="#060606" d="M 462.5,339.5 C 460.887,339.056 459.72,338.056 459,336.5C 458.503,334.19 458.337,331.857 458.5,329.5C 462.955,324.234 467.455,324.234 472,329.5C 473.442,337.225 470.275,340.558 462.5,339.5 Z"/></g>
<g><path style="opacity:1" fill="#090909" d="M 435.5,344.5 C 444.513,344.033 448.013,348.366 446,357.5C 449.787,361.579 452.954,366.079 455.5,371C 454.156,375.17 451.489,376.337 447.5,374.5C 444.781,370.361 441.615,366.694 438,363.5C 434.882,365.615 432.048,368.115 429.5,371C 424.667,371.5 422.5,369.333 423,364.5C 426.188,361.312 429.355,358.145 432.5,355C 430.678,350.572 431.678,347.072 435.5,344.5 Z"/></g>
<g><path style="opacity:1" fill="#be7800" d="M 568.5,344.5 C 568.667,384.835 568.5,425.168 568,465.5C 567.283,464.956 566.783,464.289 566.5,463.5C 567.167,423.833 567.833,384.167 568.5,344.5 Z"/></g>
<g><path style="opacity:1" fill="#fc9f00" d="M 401.5,402.5 C 400.545,404.746 399.878,407.079 399.5,409.5C 396.708,409.452 394.875,410.785 394,413.5C 385.43,439.519 380.263,466.185 378.5,493.5C 308.191,468.512 238.191,442.679 168.5,416C 235.6,397.618 302.933,380.118 370.5,363.5C 371.014,365.512 371.18,367.512 371,369.5C 366.915,371.195 362.748,372.695 358.5,374C 354.084,378.169 354.751,381.002 360.5,382.5C 365.501,380.992 370.501,379.826 375.5,379C 381.546,389.887 390.213,397.72 401.5,402.5 Z"/></g>
<g><path style="opacity:1" fill="#fea000" d="M 841.5,408.5 C 842.5,408.5 843.5,408.5 844.5,408.5C 844.5,483.5 844.5,558.5 844.5,633.5C 715.609,679.6 586.776,725.934 458,772.5C 357.436,731.717 257.102,690.384 157,648.5C 156.333,572.833 156.333,497.167 157,421.5C 257.073,459.061 357.24,496.394 457.5,533.5C 585.738,492.198 713.738,450.531 841.5,408.5 Z"/></g>
<g><path style="opacity:1" fill="#9f9f9f" d="M 505.5,413.5 C 531.695,434.102 553.362,458.602 570.5,487C 547.917,494.811 525.25,502.311 502.5,509.5C 500.558,496.24 500.058,482.907 501,469.5C 505.942,451.083 507.442,432.416 505.5,413.5 Z"/></g>
<g><path style="opacity:1" fill="#080400" d="M 243.5,492.5 C 245.857,492.337 248.19,492.503 250.5,493C 287.833,507.667 325.167,522.333 362.5,537C 375.961,545.713 377.961,556.38 368.5,569C 363.768,571.401 358.768,572.068 353.5,571C 342.319,567.666 331.485,563.5 321,558.5C 319.579,554.518 320.746,551.852 324.5,550.5C 334.61,554.886 344.943,558.72 355.5,562C 365.21,562.43 367.71,558.264 363,549.5C 361.833,548.333 360.667,547.167 359.5,546C 323.5,531.667 287.5,517.333 251.5,503C 248.571,502.223 245.737,502.39 243,503.5C 240.928,508.245 241.428,512.745 244.5,517C 265.466,525.992 286.466,534.992 307.5,544C 309.312,550.189 306.978,552.523 300.5,551C 279.671,542.175 259.004,533.175 238.5,524C 231.564,515.8 230.73,506.966 236,497.5C 238.479,495.686 240.979,494.019 243.5,492.5 Z"/></g>
<g><path style="opacity:1" fill="#000000" d="M 455.5,555.5 C 457.936,555.317 460.103,555.984 462,557.5C 462.667,619.833 462.667,682.167 462,744.5C 459.333,747.167 456.667,747.167 454,744.5C 453.333,682.5 453.333,620.5 454,558.5C 454.513,557.473 455.013,556.473 455.5,555.5 Z"/></g>
</svg>
