<?xml version="1.0" encoding="UTF-8"?>
<!DOCTYPE svg PUBLIC "-//W3C//DTD SVG 1.1//EN" "http://www.w3.org/Graphics/SVG/1.1/DTD/svg11.dtd">
<svg xmlns="http://www.w3.org/2000/svg" version="1.1" width="256px" height="256px" style="shape-rendering:geometricPrecision; text-rendering:geometricPrecision; image-rendering:optimizeQuality; fill-rule:evenodd; clip-rule:evenodd" xmlns:xlink="http://www.w3.org/1999/xlink">
<g><path style="opacity:0.935" fill="#020202" d="M 235.5,109.5 C 231.993,110.006 228.826,109.34 226,107.5C 219.896,87.1803 212.229,67.5136 203,48.5C 201.235,46.2256 199.068,44.5589 196.5,43.5C 189.958,47.5326 184.124,52.5326 179,58.5C 173.379,65.5766 167.879,72.7432 162.5,80C 153.01,78.0002 143.343,76.5002 133.5,75.5C 127.368,75.7568 121.368,76.7568 115.5,78.5C 108.886,75.6395 107.886,71.4728 112.5,66C 116.335,65.2926 120.002,64.1259 123.5,62.5C 118.528,55.0281 113.361,47.6948 108,40.5C 105.058,36.6109 101.225,34.7776 96.5,35C 92.9636,38.2012 89.7969,41.7012 87,45.5C 80.841,57.4838 75.5077,69.8172 71,82.5C 68.3105,83.9365 65.4772,84.9365 62.5,85.5C 59.7677,84.2541 58.4344,82.0875 58.5,79C 63.3535,62.1258 70.5202,46.2924 80,31.5C 89.3041,19.7909 100.137,17.9576 112.5,26C 115.333,28.8333 118.167,31.6667 121,34.5C 127.5,43.6667 134,52.8333 140.5,62C 145.378,62.5755 150.211,63.4089 155,64.5C 160.978,59.1819 166.311,53.1819 171,46.5C 176.677,39.4817 183.511,33.9817 191.5,30C 197.304,28.7762 202.638,29.7762 207.5,33C 214.563,40.2832 219.73,48.7832 223,58.5C 228.267,73.4681 233.434,88.4681 238.5,103.5C 238.016,105.801 237.016,107.801 235.5,109.5 Z"/></g>
<g><path style="opacity:0.999" fill="#b2b2b2" d="M 235.5,109.5 C 237.307,115.729 238.64,122.062 239.5,128.5C 236.98,129.188 234.48,130.188 232,131.5C 232.791,146.263 230.791,160.597 226,174.5C 224.726,177.391 223.226,180.058 221.5,182.5C 219.399,180.512 216.899,178.845 214,177.5C 213.722,178.416 213.222,179.082 212.5,179.5C 212.896,176.956 212.229,174.789 210.5,173C 200.428,168.431 190.095,164.931 179.5,162.5C 180.552,162.649 181.552,162.483 182.5,162C 177.586,158.723 172.92,155.223 168.5,151.5C 169.817,151.821 171.151,152.154 172.5,152.5C 177.351,150.537 182.351,149.037 187.5,148C 196.167,147.667 204.833,147.333 213.5,147C 218.932,142.676 218.599,138.676 212.5,135C 197.686,133.075 183.353,134.741 169.5,140C 165.151,142.909 164.484,146.409 167.5,150.5C 162.145,147.658 157.478,143.825 153.5,139C 152.552,138.517 151.552,138.351 150.5,138.5C 155.342,132.034 154.008,127.368 146.5,124.5C 144.577,125.092 142.911,126.092 141.5,127.5C 137.91,122.064 134.077,116.73 130,111.5C 127.79,108.71 124.956,107.877 121.5,109C 115.324,114.576 109.991,120.743 105.5,127.5C 99.3936,121.611 95.0603,122.777 92.5,131C 92.8402,133.511 93.8402,135.678 95.5,137.5C 85.7311,144.561 75.7311,151.394 65.5,158C 64.7476,158.671 64.4142,159.504 64.5,160.5C 63.6906,159.531 62.6906,158.698 61.5,158C 57.8484,157.501 54.1817,157.335 50.5,157.5C 50.5,154.5 50.5,151.5 50.5,148.5C 55.7643,150.725 60.2643,149.725 64,145.5C 64.782,142.743 64.282,140.243 62.5,138C 58.9686,136.594 55.3019,135.76 51.5,135.5C 53.6046,124.018 57.7712,113.352 64,103.5C 64.6667,101.5 64.6667,99.5 64,97.5C 62.3333,96.2668 60.8333,94.9335 59.5,93.5C 60.8916,90.9933 61.8916,88.3267 62.5,85.5C 65.4772,84.9365 68.3105,83.9365 71,82.5C 75.5077,69.8172 80.841,57.4838 87,45.5C 89.7969,41.7012 92.9636,38.2012 96.5,35C 101.225,34.7776 105.058,36.6109 108,40.5C 113.361,47.6948 118.528,55.0281 123.5,62.5C 120.002,64.1259 116.335,65.2926 112.5,66C 107.886,71.4728 108.886,75.6395 115.5,78.5C 121.368,76.7568 127.368,75.7568 133.5,75.5C 143.343,76.5002 153.01,78.0002 162.5,80C 167.879,72.7432 173.379,65.5766 179,58.5C 184.124,52.5326 189.958,47.5326 196.5,43.5C 199.068,44.5589 201.235,46.2256 203,48.5C 212.229,67.5136 219.896,87.1803 226,107.5C 228.826,109.34 231.993,110.006 235.5,109.5 Z"/></g>
<g><path style="opacity:0.93" fill="#020202" d="M 59.5,93.5 C 60.8333,94.9335 62.3333,96.2668 64,97.5C 64.6667,99.5 64.6667,101.5 64,103.5C 57.7712,113.352 53.6046,124.018 51.5,135.5C 55.3019,135.76 58.9686,136.594 62.5,138C 64.282,140.243 64.782,142.743 64,145.5C 60.2643,149.725 55.7643,150.725 50.5,148.5C 50.5,151.5 50.5,154.5 50.5,157.5C 54.1817,157.335 57.8484,157.501 61.5,158C 62.6906,158.698 63.6906,159.531 64.5,160.5C 66.484,165.195 65.1507,168.528 60.5,170.5C 57.8333,170.5 55.1667,170.5 52.5,170.5C 52.2627,171.791 52.596,172.791 53.5,173.5C 59.8314,192 72.1648,204.833 90.5,212C 94.4468,213.484 98.4468,214.65 102.5,215.5C 104.515,216.924 106.848,217.59 109.5,217.5C 136.875,222.959 163.542,220.459 189.5,210C 203.184,204.136 213.851,194.969 221.5,182.5C 223.226,180.058 224.726,177.391 226,174.5C 230.791,160.597 232.791,146.263 232,131.5C 234.48,130.188 236.98,129.188 239.5,128.5C 242.112,129.277 243.945,130.944 245,133.5C 247.749,184.762 224.249,216.929 174.5,230C 142.775,237.217 111.775,234.884 81.5,223C 63,215.167 49.8333,202 42,183.5C 40.6476,180.28 39.8143,176.947 39.5,173.5C 32.3213,175.086 25.1546,176.753 18,178.5C 11.7524,178.024 9.41904,174.69 11,168.5C 11.8333,167.5 12.6667,166.5 13.5,165.5C 20.8941,162.402 28.5607,160.402 36.5,159.5C 35.576,155.265 35.576,151.099 36.5,147C 28.8687,145.96 21.202,145.294 13.5,145C 12.0692,144.535 10.9025,143.701 10,142.5C 8.00843,136.663 9.84176,132.829 15.5,131C 22.8194,131.284 30.1527,131.284 37.5,131C 40.0048,121.154 43.5048,111.654 48,102.5C 49.9788,97.0105 53.8121,94.0105 59.5,93.5 Z"/></g>
<g><path style="opacity:1" fill="#fcfcfc" d="M 141.5,127.5 C 138.693,136.281 141.693,139.948 150.5,138.5C 151.552,138.351 152.552,138.517 153.5,139C 157.478,143.825 162.145,147.658 167.5,150.5C 167.5,151.167 167.833,151.5 168.5,151.5C 172.92,155.223 177.586,158.723 182.5,162C 181.552,162.483 180.552,162.649 179.5,162.5C 172.378,160.458 168.878,163.125 169,170.5C 169.93,172.552 171.43,174.052 173.5,175C 184.253,177.876 194.919,181.043 205.5,184.5C 209.154,184.52 211.488,182.853 212.5,179.5C 213.222,179.082 213.722,178.416 214,177.5C 216.899,178.845 219.399,180.512 221.5,182.5C 213.851,194.969 203.184,204.136 189.5,210C 163.542,220.459 136.875,222.959 109.5,217.5C 107.485,216.076 105.152,215.41 102.5,215.5C 98.4468,214.65 94.4468,213.484 90.5,212C 72.1648,204.833 59.8314,192 53.5,173.5C 55.5078,171.917 57.8411,170.917 60.5,170.5C 65.1507,168.528 66.484,165.195 64.5,160.5C 64.4142,159.504 64.7476,158.671 65.5,158C 75.7311,151.394 85.7311,144.561 95.5,137.5C 103.611,139.384 106.945,136.051 105.5,127.5C 109.991,120.743 115.324,114.576 121.5,109C 124.956,107.877 127.79,108.71 130,111.5C 134.077,116.73 137.91,122.064 141.5,127.5 Z"/></g>
<g><path style="opacity:1" fill="#0e0e0e" d="M 105.5,127.5 C 106.945,136.051 103.611,139.384 95.5,137.5C 93.8402,135.678 92.8402,133.511 92.5,131C 95.0603,122.777 99.3936,121.611 105.5,127.5 Z"/></g>
<g><path style="opacity:1" fill="#0d0d0d" d="M 150.5,138.5 C 141.693,139.948 138.693,136.281 141.5,127.5C 142.911,126.092 144.577,125.092 146.5,124.5C 154.008,127.368 155.342,132.034 150.5,138.5 Z"/></g>
<g><path style="opacity:1" fill="#070707" d="M 168.5,151.5 C 167.833,151.5 167.5,151.167 167.5,150.5C 164.484,146.409 165.151,142.909 169.5,140C 183.353,134.741 197.686,133.075 212.5,135C 218.599,138.676 218.932,142.676 213.5,147C 204.833,147.333 196.167,147.667 187.5,148C 182.351,149.037 177.351,150.537 172.5,152.5C 171.151,152.154 169.817,151.821 168.5,151.5 Z"/></g>
<g><path style="opacity:1" fill="#0a0a0a" d="M 117.5,141.5 C 125.305,142.167 128.471,146.5 127,154.5C 131.667,159.167 136.333,163.833 141,168.5C 143.08,177.739 139.58,180.573 130.5,177C 127.318,173.651 123.985,170.484 120.5,167.5C 117.06,170.862 113.727,174.362 110.5,178C 102.805,179.509 99.9717,176.342 102,168.5C 106,163.833 110,159.167 114,154.5C 113.68,151.54 113.68,148.54 114,145.5C 115.376,144.295 116.542,142.962 117.5,141.5 Z"/></g>
<g><path style="opacity:1" fill="#0b0b0b" d="M 179.5,162.5 C 190.095,164.931 200.428,168.431 210.5,173C 212.229,174.789 212.896,176.956 212.5,179.5C 211.488,182.853 209.154,184.52 205.5,184.5C 194.919,181.043 184.253,177.876 173.5,175C 171.43,174.052 169.93,172.552 169,170.5C 168.878,163.125 172.378,160.458 179.5,162.5 Z"/></g>
<g><path style="opacity:1" fill="#adadad" d="M 60.5,170.5 C 57.8411,170.917 55.5078,171.917 53.5,173.5C 52.596,172.791 52.2627,171.791 52.5,170.5C 55.1667,170.5 57.8333,170.5 60.5,170.5 Z"/></g>
<g><path style="opacity:1" fill="#b0b0b0" d="M 102.5,215.5 C 105.152,215.41 107.485,216.076 109.5,217.5C 106.848,217.59 104.515,216.924 102.5,215.5 Z"/></g>
</svg>
